Coordinates
version=1
nRows=13
nColumns=36
inDegrees=yes

Units are S.I. units (second, meters, Newtons, ...)
If the header above contains a line with 'inDegrees', this indicates whether rotational values are in degrees (yes) or radians (no).

endheader
time	pelvis_tilt	pelvis_list	pelvis_rotation	pelvis_tx	pelvis_ty	pelvis_tz	hip_flexion_r	hip_adduction_r	hip_rotation_r	knee_angle_r	knee_angle_r_beta	ankle_angle_r	subtalar_angle_r	mtp_angle_r	hip_flexion_l	hip_adduction_l	hip_rotation_l	knee_angle_l	knee_angle_l_beta	ankle_angle_l	subtalar_angle_l	mtp_angle_l	lumbar_extension	lumbar_bending	lumbar_rotation	arm_flex_r	arm_add_r	arm_rot_r	elbow_flex_r	pro_sup_r	arm_flex_l	arm_add_l	arm_rot_l	elbow_flex_l	pro_sup_l
      4.71250000	     -5.10216285	      0.13682939	     15.83657882	      0.24371615	      0.97511711	      0.02214175	      2.88257588	     -1.12031809	     -3.01133614	      0.74794831	      0.01305416	      4.07816717	    -17.89027973	     -7.49999987	     10.43136263	     -4.53781161	     -0.60740113	      2.99747860	      0.05231587	     -3.49394997	     -9.84130495	     -7.49999987	    -15.39525549	     -2.46106964	      7.42613539	      9.03507977	     -9.66807313	     88.64052684	     13.59760104	     26.92211206	     16.07734666	    -14.92408678	    113.29573205	     24.33677314	     45.99774507
      4.71666670	     -5.63991495	     -0.07155002	     15.83322583	      0.24318766	      0.95747855	      0.02001030	      3.54030879	     -1.10137274	     -2.78105774	      0.75337515	      0.01314888	      4.00370225	    -18.54189935	     -7.49999987	     11.30241297	     -4.58684550	     -0.80235017	      3.38580851	      0.05909351	     -2.92131186	     -9.41848797	     -7.49999987	    -14.66901586	     -2.34918163	      6.76015412	     10.46240049	     -9.63634716	     92.00363246	     13.17982355	     22.57880995	     19.12586290	    -17.24409137	    102.45757547	     23.39178547	     49.55040936
      4.72083330	     -5.89738708	     -0.20041552	     15.90593571	      0.24439266	      0.96239159	      0.01551688	      3.81569681	     -1.14451256	     -2.84107831	      0.77521030	      0.01352997	      4.13223151	    -18.73663850	     -7.49999987	     11.80704257	     -4.56542716	     -0.68237028	      3.68032641	      0.06423381	     -2.53772709	     -9.07118242	     -7.49999987	    -14.23083850	     -2.20736479	      6.70513211	     11.07763920	    -10.02774602	     90.68228913	     13.49609483	     23.26649220	     20.84338410	    -17.94480968	     95.46706843	     22.26711536	     46.50314001
      4.72500000	     -6.08586641	     -0.29692001	     15.98595384	      0.24421577	      0.96748832	      0.01174953	      3.97744754	     -1.25865887	     -2.91558108	      0.75721759	      0.01321594	      4.29523653	    -18.90216258	     -7.49999987	     12.17254441	     -4.48013584	     -0.52839016	      3.93541668	      0.06868598	     -2.15798068	     -8.86220900	     -7.49999987	    -13.81636315	     -1.95471428	      6.73494007	     11.66116740	    -10.61521912	     88.78051884	     13.78511503	     27.25948943	     21.42881922	    -17.87197527	     89.56392324	     21.02413868	     43.15840144
      4.72916670	     -6.02010787	     -0.30908196	     16.19106011	      0.24266049	      0.97466588	      0.00941013	      3.82009528	     -1.39692350	     -3.07514898	      0.72112019	      0.01258592	      4.30869045	    -18.99303487	     -7.49999987	     12.29076957	     -4.34019785	     -0.26352678	      4.20135298	      0.07332744	     -1.85839933	     -8.78299272	     -7.49999987	    -13.85222263	     -1.66238855	      7.29489210	     12.25670743	    -11.16653795	     88.38829764	     13.65856083	     27.32445885	     22.07903942	    -17.03025573	     88.14122988	     19.53521161	     42.57466549
      4.73333330	     -6.12940179	     -0.27544595	     16.29756947	      0.24161732	      0.97618674	      0.00891304	      3.86937803	     -1.62655004	     -3.12327213	      0.67398144	      0.01176320	      4.34128343	    -18.91624938	     -7.49999987	     12.48343219	     -4.09947450	     -0.21599861	      4.32970060	      0.07556753	     -1.72594114	     -8.55085024	     -7.49999987	    -13.80043170	     -1.42729464	      7.20907899	     13.11992257	    -11.63232098	     83.93612787	     13.81017819	     32.24047843	     21.19595164	    -16.55242012	     80.23298521	     18.72239848	     41.53513466
      4.73750000	     -5.99727897	     -0.17730267	     16.47679465	      0.24016017	      0.98060867	      0.01151480	      3.67463121	     -1.79305939	     -3.22382932	      0.61528065	      0.01073867	      4.23323974	    -18.83051998	     -7.49999987	     12.45033707	     -3.90762600	     -0.20799328	      4.48634993	      0.07830158	     -1.70727670	     -8.54779897	     -7.49999987	    -14.10557049	     -1.34369547	      7.58181806	     14.24099733	    -11.81676390	     83.11306844	     13.36962900	     32.13871859	     21.62594844	    -15.91489547	     78.95157874	     17.50524723	     41.07926457
      4.74166670	     -6.25131624	     -0.16617719	     16.61499013	      0.23654728	      0.97377482	      0.01160263	      3.97431723	     -1.94466388	     -3.27921604	      0.59491853	      0.01038329	      4.14254141	    -18.74056273	     -7.49999987	     13.02131484	     -3.73510802	     -0.28289413	      4.93308926	      0.08609865	     -1.67988908	     -8.71668383	     -7.49999987	    -13.83660951	     -1.35019807	      8.00094524	     15.26389136	    -12.17675730	     80.31832371	     13.42429205	     33.77389766	     21.86554186	    -15.55849907	     75.46190798	     17.21944194	     41.61943236
      4.74583330	     -6.27663255	     -0.12466540	     16.75316938	      0.23302232	      0.97252652	      0.01291331	      4.08212754	     -2.00444835	     -3.26507467	      0.57190236	      0.00998158	      4.00815686	    -18.80634196	     -7.49999987	     13.38698463	     -3.61344685	     -0.36134336	      5.33913348	      0.09318546	     -1.54706130	     -8.88029367	     -7.49999987	    -14.05050395	     -1.38465466	      8.35021133	     16.54405422	    -12.61831403	     75.78992780	     13.99722706	     38.02629688	     22.24035700	    -15.48928205	     70.25018231	     17.79400266	     45.55561724
      4.75000000	     -6.44145364	     -0.11116088	     16.87458610	      0.22847040	      0.97154789	      0.01593847	      4.42162908	     -2.06912672	     -3.18927675	      0.56762587	      0.00990694	      3.96188410	    -18.70341937	     -7.49999987	     14.02840200	     -3.52077869	     -0.55426421	      5.74696929	      0.10030354	     -1.56664623	     -9.16318523	     -7.49999987	    -14.04157437	     -1.40993980	      8.87466007	     18.08998024	    -12.97325163	     75.44354169	     13.94762293	     38.00848618	     23.44940254	    -15.37773475	     69.82576042	     17.92948095	     45.50427547
      4.75416670	     -6.52395445	     -0.07723068	     17.00861509	      0.23407886	      0.97839267	      0.00859618	      4.55945025	     -2.17820058	     -3.38212080	      0.56851889	      0.00992253	      3.80901744	    -18.60233714	     -7.49999987	     14.41954883	     -3.38181860	     -0.42035106	      6.11795235	      0.10677841	     -1.51765838	     -9.25117191	     -7.49999987	    -14.04972603	     -1.40231533	      9.22870327	     19.16125771	    -13.44924382	     74.49849836	     13.89827386	     38.00995250	     24.11816515	    -14.94025420	     68.77571393	     17.99812311	     45.41133758
      4.75833330	     -6.56013761	      0.01277712	     17.04624056	      0.22999691	      0.98342876	      0.01409436	      4.68808383	     -2.25797928	     -3.41409963	      0.56333050	      0.00983197	      3.87514968	    -18.35859269	     -7.49999987	     14.58335667	     -3.28038542	     -0.56014860	      6.12406710	      0.10688513	     -1.67508508	     -9.26171902	     -7.49999987	    -14.45306395	     -1.53332714	      9.49754572	     20.10589822	    -13.81055875	     66.04768375	     14.98379627	     46.35331743	     24.36314592	    -14.82658199	     60.31114774	     19.12329675	     52.49857652
      4.76250000	     -6.62233959	      0.06354975	     17.20094067	      0.22555956	      0.98219624	      0.01714397	      4.87881118	     -2.34159184	     -3.47985506	      0.54974451	      0.00959485	      3.73202905	    -18.23761207	     -7.49999987	     14.98546381	     -3.20184278	     -0.57663543	      6.41972265	      0.11204530	     -1.73658193	     -9.18196276	     -7.49999987	    -14.67146221	     -1.60145194	      9.71048842	     21.81239430	    -14.03171580	     65.59820021	     14.95957053	     46.30307927	     25.86997960	    -14.73294273	     59.99772646	     19.26216156	     52.52810080
